<mxfile host="app.diagrams.net" agent="Mozilla/5.0 (Windows NT 10.0; Win64; x64) AppleWebKit/537.36 (KHTML, like Gecko) Chrome/130.0.0.0 Safari/537.36 Edg/130.0.0.0" version="24.8.2">
  <diagram name="Trang-1" id="lPVhursbWP4l5N3nqtMR">
    <mxGraphModel dx="962" dy="405" grid="1" gridSize="10" guides="1" tooltips="1" connect="1" arrows="1" fold="1" page="1" pageScale="1" pageWidth="827" pageHeight="1169" math="0" shadow="0">
      <root>
        <mxCell id="0" />
        <mxCell id="1" parent="0" />
        <mxCell id="zpDj9r_sV9c_TJEIEZDB-5" style="edgeStyle=orthogonalEdgeStyle;rounded=0;orthogonalLoop=1;jettySize=auto;html=1;entryX=0.5;entryY=0;entryDx=0;entryDy=0;" edge="1" parent="1" source="zpDj9r_sV9c_TJEIEZDB-1" target="zpDj9r_sV9c_TJEIEZDB-4">
          <mxGeometry relative="1" as="geometry" />
        </mxCell>
        <mxCell id="zpDj9r_sV9c_TJEIEZDB-1" value="" style="ellipse;html=1;shape=startState;fillColor=#000000;strokeColor=#ff0000;" vertex="1" parent="1">
          <mxGeometry x="360" y="40" width="30" height="30" as="geometry" />
        </mxCell>
        <mxCell id="zpDj9r_sV9c_TJEIEZDB-7" style="edgeStyle=orthogonalEdgeStyle;rounded=0;orthogonalLoop=1;jettySize=auto;html=1;entryX=0;entryY=0.5;entryDx=0;entryDy=0;" edge="1" parent="1" source="zpDj9r_sV9c_TJEIEZDB-4" target="zpDj9r_sV9c_TJEIEZDB-11">
          <mxGeometry relative="1" as="geometry">
            <mxPoint x="500" y="175" as="targetPoint" />
          </mxGeometry>
        </mxCell>
        <mxCell id="zpDj9r_sV9c_TJEIEZDB-9" style="edgeStyle=orthogonalEdgeStyle;rounded=0;orthogonalLoop=1;jettySize=auto;html=1;entryX=1;entryY=0.5;entryDx=0;entryDy=0;" edge="1" parent="1" source="zpDj9r_sV9c_TJEIEZDB-4" target="zpDj9r_sV9c_TJEIEZDB-12">
          <mxGeometry relative="1" as="geometry">
            <mxPoint x="230" y="175" as="targetPoint" />
          </mxGeometry>
        </mxCell>
        <mxCell id="zpDj9r_sV9c_TJEIEZDB-4" value="&#xa;Decision Node&#xa;&#xa;" style="rhombus;whiteSpace=wrap;html=1;" vertex="1" parent="1">
          <mxGeometry x="317.5" y="120" width="115" height="110" as="geometry" />
        </mxCell>
        <mxCell id="zpDj9r_sV9c_TJEIEZDB-8" value="Thủ công" style="text;html=1;align=center;verticalAlign=middle;resizable=0;points=[];autosize=1;strokeColor=none;fillColor=none;" vertex="1" parent="1">
          <mxGeometry x="432.5" y="148" width="70" height="30" as="geometry" />
        </mxCell>
        <mxCell id="zpDj9r_sV9c_TJEIEZDB-10" value="Tự động" style="text;html=1;align=center;verticalAlign=middle;resizable=0;points=[];autosize=1;strokeColor=none;fillColor=none;" vertex="1" parent="1">
          <mxGeometry x="247.5" y="145" width="70" height="30" as="geometry" />
        </mxCell>
        <mxCell id="zpDj9r_sV9c_TJEIEZDB-14" style="edgeStyle=orthogonalEdgeStyle;rounded=0;orthogonalLoop=1;jettySize=auto;html=1;entryX=0.5;entryY=0;entryDx=0;entryDy=0;" edge="1" parent="1" source="zpDj9r_sV9c_TJEIEZDB-11" target="zpDj9r_sV9c_TJEIEZDB-13">
          <mxGeometry relative="1" as="geometry" />
        </mxCell>
        <mxCell id="zpDj9r_sV9c_TJEIEZDB-11" value="Sinh sản thủ công" style="rounded=1;whiteSpace=wrap;html=1;" vertex="1" parent="1">
          <mxGeometry x="510" y="145" width="120" height="60" as="geometry" />
        </mxCell>
        <mxCell id="zpDj9r_sV9c_TJEIEZDB-32" style="edgeStyle=orthogonalEdgeStyle;rounded=0;orthogonalLoop=1;jettySize=auto;html=1;entryX=0.5;entryY=0;entryDx=0;entryDy=0;" edge="1" parent="1" source="zpDj9r_sV9c_TJEIEZDB-12" target="zpDj9r_sV9c_TJEIEZDB-26">
          <mxGeometry relative="1" as="geometry" />
        </mxCell>
        <mxCell id="zpDj9r_sV9c_TJEIEZDB-12" value="Sinh sản tự động" style="rounded=1;whiteSpace=wrap;html=1;" vertex="1" parent="1">
          <mxGeometry x="120" y="145" width="120" height="60" as="geometry" />
        </mxCell>
        <mxCell id="zpDj9r_sV9c_TJEIEZDB-16" style="edgeStyle=orthogonalEdgeStyle;rounded=0;orthogonalLoop=1;jettySize=auto;html=1;entryX=0.5;entryY=0;entryDx=0;entryDy=0;" edge="1" parent="1" source="zpDj9r_sV9c_TJEIEZDB-13" target="zpDj9r_sV9c_TJEIEZDB-15">
          <mxGeometry relative="1" as="geometry" />
        </mxCell>
        <mxCell id="zpDj9r_sV9c_TJEIEZDB-13" value="Cung cấp cá bố mẹ" style="rounded=1;whiteSpace=wrap;html=1;" vertex="1" parent="1">
          <mxGeometry x="510" y="270" width="120" height="60" as="geometry" />
        </mxCell>
        <mxCell id="zpDj9r_sV9c_TJEIEZDB-18" style="edgeStyle=orthogonalEdgeStyle;rounded=0;orthogonalLoop=1;jettySize=auto;html=1;entryX=0.5;entryY=0;entryDx=0;entryDy=0;" edge="1" parent="1" source="zpDj9r_sV9c_TJEIEZDB-15" target="zpDj9r_sV9c_TJEIEZDB-17">
          <mxGeometry relative="1" as="geometry" />
        </mxCell>
        <mxCell id="zpDj9r_sV9c_TJEIEZDB-15" value="Chọn cá bố mẹ" style="rounded=1;whiteSpace=wrap;html=1;" vertex="1" parent="1">
          <mxGeometry x="510" y="380" width="120" height="60" as="geometry" />
        </mxCell>
        <mxCell id="zpDj9r_sV9c_TJEIEZDB-20" style="edgeStyle=orthogonalEdgeStyle;rounded=0;orthogonalLoop=1;jettySize=auto;html=1;entryX=0.5;entryY=0;entryDx=0;entryDy=0;" edge="1" parent="1" source="zpDj9r_sV9c_TJEIEZDB-17" target="zpDj9r_sV9c_TJEIEZDB-19">
          <mxGeometry relative="1" as="geometry" />
        </mxCell>
        <mxCell id="zpDj9r_sV9c_TJEIEZDB-17" value="Hệ thống sinh nhiều cá cùng lúc" style="rounded=1;whiteSpace=wrap;html=1;" vertex="1" parent="1">
          <mxGeometry x="510" y="500" width="120" height="60" as="geometry" />
        </mxCell>
        <mxCell id="zpDj9r_sV9c_TJEIEZDB-37" style="edgeStyle=orthogonalEdgeStyle;rounded=0;orthogonalLoop=1;jettySize=auto;html=1;entryX=1;entryY=0.5;entryDx=0;entryDy=0;" edge="1" parent="1" source="zpDj9r_sV9c_TJEIEZDB-19" target="zpDj9r_sV9c_TJEIEZDB-35">
          <mxGeometry relative="1" as="geometry">
            <mxPoint x="570" y="810" as="targetPoint" />
            <Array as="points">
              <mxPoint x="570" y="750" />
            </Array>
          </mxGeometry>
        </mxCell>
        <mxCell id="zpDj9r_sV9c_TJEIEZDB-19" value="Nhận kết quả" style="rounded=1;whiteSpace=wrap;html=1;" vertex="1" parent="1">
          <mxGeometry x="510" y="610" width="120" height="60" as="geometry" />
        </mxCell>
        <mxCell id="zpDj9r_sV9c_TJEIEZDB-25" style="edgeStyle=orthogonalEdgeStyle;rounded=0;orthogonalLoop=1;jettySize=auto;html=1;entryX=0.5;entryY=0;entryDx=0;entryDy=0;" edge="1" parent="1" source="zpDj9r_sV9c_TJEIEZDB-26" target="zpDj9r_sV9c_TJEIEZDB-28">
          <mxGeometry relative="1" as="geometry" />
        </mxCell>
        <mxCell id="zpDj9r_sV9c_TJEIEZDB-26" value="Cung cấp cá bố mẹ" style="rounded=1;whiteSpace=wrap;html=1;" vertex="1" parent="1">
          <mxGeometry x="120" y="270" width="120" height="60" as="geometry" />
        </mxCell>
        <mxCell id="zpDj9r_sV9c_TJEIEZDB-27" style="edgeStyle=orthogonalEdgeStyle;rounded=0;orthogonalLoop=1;jettySize=auto;html=1;entryX=0.5;entryY=0;entryDx=0;entryDy=0;" edge="1" parent="1" source="zpDj9r_sV9c_TJEIEZDB-28" target="zpDj9r_sV9c_TJEIEZDB-30">
          <mxGeometry relative="1" as="geometry" />
        </mxCell>
        <mxCell id="zpDj9r_sV9c_TJEIEZDB-28" value="Chọn cá bố mẹ" style="rounded=1;whiteSpace=wrap;html=1;" vertex="1" parent="1">
          <mxGeometry x="120" y="380" width="120" height="60" as="geometry" />
        </mxCell>
        <mxCell id="zpDj9r_sV9c_TJEIEZDB-29" style="edgeStyle=orthogonalEdgeStyle;rounded=0;orthogonalLoop=1;jettySize=auto;html=1;entryX=0.5;entryY=0;entryDx=0;entryDy=0;" edge="1" parent="1" source="zpDj9r_sV9c_TJEIEZDB-30" target="zpDj9r_sV9c_TJEIEZDB-31">
          <mxGeometry relative="1" as="geometry" />
        </mxCell>
        <mxCell id="zpDj9r_sV9c_TJEIEZDB-30" value="Hệ thống sinh một con" style="rounded=1;whiteSpace=wrap;html=1;" vertex="1" parent="1">
          <mxGeometry x="120" y="500" width="120" height="60" as="geometry" />
        </mxCell>
        <mxCell id="zpDj9r_sV9c_TJEIEZDB-34" style="edgeStyle=orthogonalEdgeStyle;rounded=0;orthogonalLoop=1;jettySize=auto;html=1;entryX=0.5;entryY=0;entryDx=0;entryDy=0;" edge="1" parent="1" source="zpDj9r_sV9c_TJEIEZDB-31" target="zpDj9r_sV9c_TJEIEZDB-33">
          <mxGeometry relative="1" as="geometry" />
        </mxCell>
        <mxCell id="zpDj9r_sV9c_TJEIEZDB-31" value="Lặp lại quá trình sinh sản cho từng con&amp;nbsp;" style="rounded=1;whiteSpace=wrap;html=1;" vertex="1" parent="1">
          <mxGeometry x="120" y="610" width="120" height="60" as="geometry" />
        </mxCell>
        <mxCell id="zpDj9r_sV9c_TJEIEZDB-36" style="edgeStyle=orthogonalEdgeStyle;rounded=0;orthogonalLoop=1;jettySize=auto;html=1;entryX=0;entryY=0.5;entryDx=0;entryDy=0;" edge="1" parent="1" source="zpDj9r_sV9c_TJEIEZDB-33" target="zpDj9r_sV9c_TJEIEZDB-35">
          <mxGeometry relative="1" as="geometry" />
        </mxCell>
        <mxCell id="zpDj9r_sV9c_TJEIEZDB-33" value="Nhận kết quả" style="rounded=1;whiteSpace=wrap;html=1;" vertex="1" parent="1">
          <mxGeometry x="120" y="720" width="120" height="60" as="geometry" />
        </mxCell>
        <mxCell id="zpDj9r_sV9c_TJEIEZDB-35" value="" style="ellipse;html=1;shape=endState;fillColor=#000000;strokeColor=#ff0000;" vertex="1" parent="1">
          <mxGeometry x="390" y="735" width="30" height="30" as="geometry" />
        </mxCell>
        <mxCell id="zpDj9r_sV9c_TJEIEZDB-38" value="Start" style="text;html=1;align=center;verticalAlign=middle;resizable=0;points=[];autosize=1;strokeColor=none;fillColor=none;" vertex="1" parent="1">
          <mxGeometry x="350" y="20" width="50" height="30" as="geometry" />
        </mxCell>
        <mxCell id="zpDj9r_sV9c_TJEIEZDB-39" value="End" style="text;html=1;align=center;verticalAlign=middle;resizable=0;points=[];autosize=1;strokeColor=none;fillColor=none;" vertex="1" parent="1">
          <mxGeometry x="385" y="710" width="40" height="30" as="geometry" />
        </mxCell>
      </root>
    </mxGraphModel>
  </diagram>
</mxfile>
